<svg xmlns="http://www.w3.org/2000/svg"><style>:root svg:not(:target){display:none}</style><svg viewBox="0 0 27 14" fill="none" id="arrow"><path d="M27 7h-26m0 0 6.3-6m-6.3 6 6.3 6" stroke="#122947"></path></svg><svg viewBox="0 0 14 16" fill="none" id="cart-icon"><path d="M3.11 5.33v-1.52a3.8 3.8 0 0 1 1.14-2.7 3.93 3.93 0 0 1 5.5 0 3.77 3.77 0 0 1 1.14 2.7v1.52h2.33c.2 0 .4.08.55.23.15.14.23.33.23.54v9.14c0 .2-.08.4-.23.54a.79.79 0 0 1-.55.22h-12.44c-.2 0-.4-.08-.55-.22a.75.75 0 0 1-.23-.54v-9.14c0-.2.08-.4.23-.54a.79.79 0 0 1 .55-.23h2.33Zm0 1.53h-1.55v7.62h10.88v-7.62h-1.55v1.52h-1.56v-1.52h-4.66v1.52h-1.56v-1.52Zm1.56-1.53h4.66v-1.52c0-.6-.24-1.19-.68-1.62a2.36 2.36 0 0 0-3.3 0 2.26 2.26 0 0 0-.68 1.62v1.52Z" fill="#122947"></path></svg><svg viewBox="0 0 24 12" fill="none" id="promo-arrow"><path d="M0 6h23m0 0-5.58-5m5.58 5-5.58 5" stroke="#122947"></path></svg><svg viewBox="0 0 13 16" fill="none" id="user-icon"><path d="M0 16a5.9 5.9 0 0 1 1.9-4.31 6.73 6.73 0 0 1 4.6-1.79c1.72 0 3.38.65 4.6 1.79a5.9 5.9 0 0 1 1.9 4.31h-1.63c0-1.21-.5-2.38-1.42-3.23a5.04 5.04 0 0 0-3.45-1.34c-1.3 0-2.53.48-3.45 1.34a4.43 4.43 0 0 0-1.42 3.23h-1.63Zm6.5-6.86c-2.7 0-4.88-2.04-4.88-4.57 0-2.52 2.19-4.57 4.88-4.57 2.7 0 4.88 2.05 4.88 4.57 0 2.53-2.19 4.57-4.88 4.57Zm0-1.52c1.8 0 3.25-1.36 3.25-3.05 0-1.68-1.45-3.05-3.25-3.05s-3.25 1.37-3.25 3.05c0 1.69 1.45 3.05 3.25 3.05Z" fill="#122947"></path></svg></svg>