<svg viewBox="0 0 14 16" fill="none" xmlns="http://www.w3.org/2000/svg"><path d="M3.11 5.33v-1.52a3.8 3.8 0 0 1 1.14-2.7 3.93 3.93 0 0 1 5.5 0 3.77 3.77 0 0 1 1.14 2.7v1.52h2.33c.2 0 .4.08.55.23.15.14.23.33.23.54v9.14c0 .2-.08.4-.23.54a.79.79 0 0 1-.55.22h-12.44c-.2 0-.4-.08-.55-.22a.75.75 0 0 1-.23-.54v-9.14c0-.2.08-.4.23-.54a.79.79 0 0 1 .55-.23h2.33Zm0 1.53h-1.55v7.62h10.88v-7.62h-1.55v1.52h-1.56v-1.52h-4.66v1.52h-1.56v-1.52Zm1.56-1.53h4.66v-1.52c0-.6-.24-1.19-.68-1.62a2.36 2.36 0 0 0-3.3 0 2.26 2.26 0 0 0-.68 1.62v1.52Z" fill="#122947"/></svg>