<svg viewBox="0 0 13 16" fill="none" xmlns="http://www.w3.org/2000/svg"><path d="M0 16a5.9 5.9 0 0 1 1.9-4.31 6.73 6.73 0 0 1 4.6-1.79c1.72 0 3.38.65 4.6 1.79a5.9 5.9 0 0 1 1.9 4.31h-1.63c0-1.21-.5-2.38-1.42-3.23a5.04 5.04 0 0 0-3.45-1.34c-1.3 0-2.53.48-3.45 1.34a4.43 4.43 0 0 0-1.42 3.23h-1.63Zm6.5-6.86c-2.7 0-4.88-2.04-4.88-4.57 0-2.52 2.19-4.57 4.88-4.57 2.7 0 4.88 2.05 4.88 4.57 0 2.53-2.19 4.57-4.88 4.57Zm0-1.52c1.8 0 3.25-1.36 3.25-3.05 0-1.68-1.45-3.05-3.25-3.05s-3.25 1.37-3.25 3.05c0 1.69 1.45 3.05 3.25 3.05Z" fill="#122947"/></svg>