<svg viewBox="0 0 85 13" fill="none" xmlns="http://www.w3.org/2000/svg"><path d="M0 .27h1.99l4.85 9.72 4.84-9.72h2v12.46h-1.94v-8.86l-4.42 8.86h-.97l-4.44-8.86v8.86h-1.91v-12.46Zm20.75 0h1.91l5.44 12.46h-2.03l-1.36-3.1h-6.02l-1.33 3.1h-2.04l5.43-12.46Zm3.41 7.84-2.45-5.83-2.46 5.83h4.91Zm6.08-7.84h5.47c1.46 0 2.57.32 3.35.96.78.64 1.17 1.58 1.17 2.82 0 .91-.27 1.7-.8 2.33a4.05 4.05 0 0 1-2.26 1.29l3 5.06h-2.06l-2.9-4.92h-2.98v4.92h-2v-12.46Zm5.14 6a3.4 3.4 0 0 0 2.06-.55c.52-.38.78-.93.78-1.67 0-.81-.25-1.39-.76-1.73a3.6 3.6 0 0 0-2.08-.52h-3.15v4.48h3.15Zm13.49 6.73a8.2 8.2 0 0 1-3.67-.8 6.21 6.21 0 0 1-3.5-5.69 6.21 6.21 0 0 1 3.5-5.69 8.05 8.05 0 0 1 3.67-.82 8 8 0 0 1 3.66.82 6.21 6.21 0 0 1 3.5 5.69 6.21 6.21 0 0 1-3.5 5.69 8.2 8.2 0 0 1-3.66.8Zm0-1.64c.96 0 1.83-.2 2.6-.59.8-.4 1.42-.97 1.87-1.7.46-.73.69-1.59.69-2.56a4.67 4.67 0 0 0-2.52-4.23c-.78-.4-1.65-.6-2.6-.6-.98 0-1.86.2-2.65.58-.78.4-1.4.96-1.87 1.7a4.76 4.76 0 0 0-.69 2.55c0 .97.23 1.83.69 2.57a4.69 4.69 0 0 0 1.85 1.7c.79.38 1.66.58 2.63.58Zm15.99 1.64a8.2 8.2 0 0 1-3.66-.8 6.21 6.21 0 0 1-3.5-5.69 6.21 6.21 0 0 1 3.5-5.69 8.05 8.05 0 0 1 3.66-.82 8 8 0 0 1 3.66.82 6.21 6.21 0 0 1 3.5 5.69 6.21 6.21 0 0 1-3.5 5.69 8.2 8.2 0 0 1-3.66.8Zm0-1.64c.96 0 1.83-.2 2.6-.59.8-.4 1.42-.97 1.88-1.7a4.8 4.8 0 0 0 .68-2.56 4.67 4.67 0 0 0-2.51-4.23c-.78-.4-1.65-.6-2.61-.6-.98 0-1.86.2-2.65.58-.78.4-1.4.96-1.87 1.7a4.76 4.76 0 0 0-.68 2.55c0 .97.23 1.83.68 2.57a4.69 4.69 0 0 0 1.85 1.7c.8.38 1.67.58 2.63.58Zm9.31-11.09h1.9l6.92 9.4v-9.4h2.01v12.46h-1.9l-6.94-9.4v9.4h-1.99v-12.46Z" fill="#122947"/></svg>